<svg xmlns="http://www.w3.org/2000/svg" width="128" height="128" viewBox="0 0 128 128">
  <!-- Background -->
  <rect width="128" height="128" rx="16" fill="#0A66C2"/>
  <!-- Bookmark ribbon (path-only, no font dependency) -->
  <path d="M34,14 H94 A10,10 0 0,1 104,24 V114 L64,92 L24,114 V24 A10,10 0 0,1 34,14 Z" fill="white"/>
  <!-- "i" dot -->
  <circle cx="49" cy="37" r="6" fill="#0A66C2"/>
  <!-- "i" stem -->
  <rect x="44" y="48" width="10" height="28" rx="2" fill="#0A66C2"/>
  <!-- "n" left post -->
  <rect x="62" y="34" width="10" height="42" rx="2" fill="#0A66C2"/>
  <!-- "n" arch + right post (single path) -->
  <path d="M72,34 C72,34 72,34 80,34 C90,34 92,42 92,50 L92,76 L82,76 L82,52 C82,47 78,44 72,44 Z" fill="#0A66C2"/>
</svg>
